<svg id="Lag_1" data-name="Lag 1" xmlns="http://www.w3.org/2000/svg" viewBox="0 0 109.71 106.3"><defs><style>.cls-1{fill:#fff;}</style></defs><title>Tegnebræt 1</title><path class="cls-1" d="M53.73,32.15c0,6.58-5.84,11.37-15.29,11.37H4.31V5.29H37.38a16,16,0,0,1,11.56,4.6,9.86,9.86,0,0,1,2.8,6.78,8.6,8.6,0,0,1-3.23,6.9C52.05,25.87,53.73,28.6,53.73,32.15Zm-13-15c0-1.81-1.62-3.24-3.92-3.24H15.25v6.22H37.07C39.31,20.15,40.74,18.91,40.74,17.17ZM42.67,31.4c0-1.8-1.62-3.23-4-3.23H15.25v6.71h23.5A3.63,3.63,0,0,0,42.67,31.4Z"/><path class="cls-1" d="M63.49,43.52V5.29H74.43V34.88h29.4v8.64Z"/><path class="cls-1" d="M14.21,62.43A3.43,3.43,0,0,1,13,65.12a4.16,4.16,0,0,1-2.81,1h-5V58.58H9.94C12.58,58.58,14.21,60.1,14.21,62.43Zm-1.35,0a2.6,2.6,0,0,0-2.81-2.68H6.42V65h3.87A2.48,2.48,0,0,0,12.86,62.4Z"/><path class="cls-1" d="M25.32,66.12l-.88-1.69H19.37l-.88,1.69H17.13l4-7.54h1.57l4,7.54Zm-3.41-6.47L20,63.3h3.85Z"/><path class="cls-1" d="M37.38,66.12l-5.77-6.19v6.19H30.36V58.58h1.55l5.76,6.19V58.58h1.25v7.54Z"/><path class="cls-1" d="M52.9,66.12V60h0L49,64.87,45.06,60h0v6.16H43.78V58.58h1.56L49,63.14l3.63-4.56h1.56v7.54Z"/><path class="cls-1" d="M66,66.12l-.88-1.69H60.05l-.87,1.69H57.81l4-7.54h1.57l4,7.54Zm-3.41-6.47L60.67,63.3h3.84Z"/><path class="cls-1" d="M78.14,66.12l-2-2.87H72.29v2.87H71V58.58H77A2.28,2.28,0,0,1,79.53,61a2.12,2.12,0,0,1-2,2.22l2,2.94ZM78.25,61c0-.84-.51-1.24-1.56-1.24h-4.4v2.39H76.8C77.74,62.11,78.25,61.69,78.25,61Z"/><path class="cls-1" d="M91,66.12l-3.63-4-2.27,1.68v2.29H83.87V58.58h1.25v3.91l5.28-3.91h1.8l-3.85,2.85,4.27,4.69Z"/><path class="cls-1" d="M99,59.5c-1.57,0-2.39.39-2.39,1,0,.34.22.57.66.73a25.65,25.65,0,0,0,3.59.39c1.87.24,2.77.89,2.77,2.15,0,1.58-1.44,2.51-4.11,2.51A7,7,0,0,1,95,65l.69-.91A7,7,0,0,0,99.5,65.2c1.79,0,2.75-.52,2.75-1.33,0-1.07-1.29-1.07-3.5-1.22s-3.49-.52-3.49-2,1.35-2.29,3.8-2.29a7.13,7.13,0,0,1,4.08,1.12l-.76.84A7.36,7.36,0,0,0,99,59.5Z"/><path class="cls-1" d="M12.25,80l-.87-1.69H6.31L5.43,80H4.07l4-7.54H9.63l4,7.54Zm-3.4-6.47L6.92,77.19h3.85Z"/><path class="cls-1" d="M22.69,80V72.47h1.25v6.4h5.82V80Z"/><path class="cls-1" d="M47.93,80V73.84h0L44,78.76,40.1,73.84h0V80H38.82V72.47h1.55L44,77l3.64-4.56h1.55V80Z"/><path class="cls-1" d="M59.44,80V72.47H67V73.6H60.69v1.93H65.1v1.14H60.69v2.2h6.64V80Z"/><path class="cls-1" d="M84,80l-5.77-6.19V80H77V72.47h1.55l5.76,6.18V72.47h1.25V80Z"/><path class="cls-1" d="M95.78,80V72.47h7.6V73.6H97v1.93h4.41v1.14H97v2.2h6.64V80Z"/><path class="cls-1" d="M14,91.91c0,1.29-1,2-2.86,2h-6V86.35h6.1c1.55,0,2.45.83,2.45,2.06a1.71,1.71,0,0,1-1,1.6A1.82,1.82,0,0,1,14,91.91ZM12.5,88.49c0-.61-.44-1-1.16-1H6.42v2h4.87A1.12,1.12,0,0,0,12.5,88.49Zm.25,3.25c0-.75-.43-1.1-1.36-1.1h-5v2.12h4.77C12.25,92.76,12.75,92.46,12.75,91.74Z"/><path class="cls-1" d="M29.55,93.11a5.47,5.47,0,0,1-3.31,1,5.54,5.54,0,0,1-3.33-1,3.68,3.68,0,0,1,0-6,5.86,5.86,0,0,1,6.61,0,3.68,3.68,0,0,1,0,6ZM28.65,88a4.14,4.14,0,0,0-2.41-.71c-2.1,0-3.55,1.21-3.55,2.85S24.08,93,26.24,93s3.53-1.17,3.53-2.86A2.54,2.54,0,0,0,28.65,88Z"/><path class="cls-1" d="M38.91,93.89V86.35h1.25v6.41H46v1.13Z"/><path class="cls-1" d="M53,93.89V86.35h1.25v7.54Z"/><path class="cls-1" d="M66.92,94.11a5.54,5.54,0,0,1-3.33-1,3.68,3.68,0,0,1,0-6,5.58,5.58,0,0,1,3.4-1,5.07,5.07,0,0,1,4.08,1.83l-1.16.58a3.92,3.92,0,0,0-3-1.26,4.14,4.14,0,0,0-2.41.71,2.54,2.54,0,0,0-1.12,2.14c0,1.68,1.39,2.86,3.53,2.86a3.18,3.18,0,0,0,3.25-2H66.66V89.88h5.07V90C71.73,92.44,69.83,94.11,66.92,94.11Z"/><path class="cls-1" d="M79.57,93.89V86.35h7.6v1.14H80.82v1.92h4.42v1.14H80.82v2.21h6.65v1.13Z"/><path class="cls-1" d="M102.16,93.89l-2-2.87H96.31v2.87H95.06V86.35h6a2.28,2.28,0,0,1,2.54,2.38,2.14,2.14,0,0,1-2,2.23l2,2.93Zm.11-5.16c0-.84-.51-1.24-1.57-1.24H96.31v2.39h4.51C101.76,89.88,102.27,89.47,102.27,88.73Z"/><rect class="cls-1" x="3.91" y="50.92" width="100.41" height="0.76"/><rect class="cls-1" x="3.91" y="101.09" width="100.41" height="0.76"/></svg>