<svg xmlns="http://www.w3.org/2000/svg" viewBox="0 0 343.13 107.74"><defs><style>.cls-1{fill:#1d1d1b;}</style></defs><title>Asset 2</title><g id="Layer_2" data-name="Layer 2"><g id="logo"><path class="cls-1" d="M119.05,1.44H123l10.15,15h0l-.06-15h3.82V22.71h-4L122.84,7.87h0l.09,14.84h-3.85Z"/><path class="cls-1" d="M146.67,13.88a16.66,16.66,0,0,1,3.57.39v-.63c0-1.83-.93-2.79-3.24-2.79a5.42,5.42,0,0,0-3.94,1.53L141,10.13a8.44,8.44,0,0,1,6.31-2.2c4.54,0,6.55,1.8,6.55,6.16v8.62h-3.58V21h-.09a5.16,5.16,0,0,1-4.47,2.13c-2.68,0-5.26-1.32-5.26-4.53C140.42,15.77,142.49,13.88,146.67,13.88Zm3.57,2.73a14.07,14.07,0,0,0-3.24-.45c-2.08,0-2.95,1-2.95,2.32s1,2,2.56,2c1.86,0,3.63-1.11,3.63-3.12Z"/><path class="cls-1" d="M165.69,22.71H164c-4.51,0-5.65-.87-5.65-5.76V11.3H156v-3h2.29V4.54h3.75V8.32h3.67v3h-3.67V17c0,2.52,1.18,2.67,2.56,2.67h1.08Z"/><path class="cls-1" d="M170.23.66A2.31,2.31,0,0,1,172.54,3a2.3,2.3,0,0,1-4.6,0A2.31,2.31,0,0,1,170.23.66ZM168.3,8.32h3.85V22.71H168.3Z"/><path class="cls-1" d="M183.45,23.16a7.52,7.52,0,0,1-7.84-7.66c0-4.53,3.48-7.57,7.84-7.57s7.9,3,7.9,7.57A7.56,7.56,0,0,1,183.45,23.16Zm0-12a4,4,0,0,0-4,4.32c0,2.35,1.5,4.39,4,4.39s4.05-2,4.05-4.39A4,4,0,0,0,183.45,11.18Z"/><path class="cls-1" d="M209.2,22.71h-3.85V15c0-2.1-.84-3.9-3-3.9s-3.7,1.83-3.7,4.38v7.27h-3.84V8.32h3.75v2.2h.12a5.59,5.59,0,0,1,4.87-2.59c4.18,0,5.68,3.16,5.68,6.7Z"/><path class="cls-1" d="M218.73,13.88a16.66,16.66,0,0,1,3.57.39v-.63c0-1.83-.93-2.79-3.24-2.79a5.41,5.41,0,0,0-3.94,1.53L213,10.13a8.44,8.44,0,0,1,6.31-2.2c4.54,0,6.55,1.8,6.55,6.16v8.62H222.3V21h-.09a5.16,5.16,0,0,1-4.47,2.13c-2.68,0-5.26-1.32-5.26-4.53C212.48,15.77,214.55,13.88,218.73,13.88Zm3.57,2.73a14.07,14.07,0,0,0-3.24-.45c-2.08,0-2.95,1-2.95,2.32s1,2,2.56,2c1.86,0,3.63-1.11,3.63-3.12Z"/><path class="cls-1" d="M234.14,22.71h-3.9V0h3.9Z"/><path class="cls-1" d="M259,22.71V14.54c0-2-.78-3.48-2.82-3.48a3.88,3.88,0,0,0-3.58,4.08v7.57h-3.87V14.57c0-2-.75-3.51-2.83-3.51s-3.57,1.95-3.57,4.08v7.57h-3.85V8.32h3.79v2h.09a5.38,5.38,0,0,1,4.8-2.41,5.31,5.31,0,0,1,4.69,2.71h.06a5.89,5.89,0,0,1,5.32-2.71c3.06,0,5.62,2.17,5.62,6v8.83Z"/><path class="cls-1" d="M267.05,8.32h3.84V16c0,2.17.81,3.91,3.13,3.91s3.36-2,3.36-4.33V8.32h3.88V22.71H277.5v-2.1h-.09A5.53,5.53,0,0,1,273,23c-4.21,0-5.92-2.55-5.92-6.7Z"/><path class="cls-1" d="M295.26,12.56a7.11,7.11,0,0,0-4.32-1.68c-1.3,0-2.71.42-2.71,1.47s1.47,1.35,3.55,1.68c3.18.51,6,1.41,6,4.39,0,3.27-3.16,4.74-6.46,4.74A11.33,11.33,0,0,1,284,20.49l2.34-2.31a7.42,7.42,0,0,0,4.87,2.1c1.38,0,2.79-.48,2.79-1.62,0-2.86-9.52-.84-9.52-6.07,0-3.1,3-4.66,6.25-4.66a10,10,0,0,1,6.7,2.38Z"/><path class="cls-1" d="M303.71,16.49a4,4,0,0,0,4.17,3.7,5.21,5.21,0,0,0,4-2l2.58,1.68a8.48,8.48,0,0,1-6.82,3.24c-4.08,0-7.57-2.79-7.57-7.33a7.63,7.63,0,0,1,7.69-7.9,6.89,6.89,0,0,1,6.94,7.15c0,.51,0,1-.05,1.41Zm0-2.31h7.54a3.51,3.51,0,0,0-3.64-3.45A3.9,3.9,0,0,0,303.71,14.18Z"/><path class="cls-1" d="M320.9,16.49a4,4,0,0,0,4.17,3.7,5.21,5.21,0,0,0,4-2l2.58,1.68a8.48,8.48,0,0,1-6.82,3.24c-4.08,0-7.57-2.79-7.57-7.33a7.63,7.63,0,0,1,7.69-7.9,6.89,6.89,0,0,1,6.94,7.15c0,.51,0,1-.06,1.41Zm0-2.31h7.54a3.51,3.51,0,0,0-3.64-3.45A3.9,3.9,0,0,0,320.9,14.18Z"/><path class="cls-1" d="M343.1,22.71h-1.74c-4.51,0-5.65-.87-5.65-5.76V11.3h-2.28v-3h2.28V4.54h3.76V8.32h3.66v3h-3.66V17c0,2.52,1.17,2.67,2.55,2.67h1.08Z"/><path class="cls-1" d="M144.56,39.72h1.56l4,6h0l0-6h1.53v8.49H150.1l-4-5.93h0l0,5.93h-1.54Z"/><path class="cls-1" d="M155.65,44.68a6.6,6.6,0,0,1,1.43.16v-.25c0-.74-.38-1.12-1.3-1.12a2.16,2.16,0,0,0-1.57.61l-.84-.9a3.41,3.41,0,0,1,2.52-.87c1.81,0,2.61.72,2.61,2.46v3.44h-1.42v-.7h0a2.06,2.06,0,0,1-1.79.85c-1.07,0-2.1-.52-2.1-1.81C153.15,45.44,154,44.68,155.65,44.68Zm1.43,1.09a6.08,6.08,0,0,0-1.3-.18c-.83,0-1.18.39-1.18.93s.41.8,1,.8a1.32,1.32,0,0,0,1.46-1.25Z"/><path class="cls-1" d="M163.3,48.21h-.69c-1.8,0-2.26-.35-2.26-2.3V43.65h-.91V42.46h.91V41h1.5v1.51h1.47v1.19h-1.47v2.29c0,1,.47,1.07,1,1.07h.43Z"/><path class="cls-1" d="M165.18,39.4a.93.93,0,0,1,.92.93.92.92,0,0,1-1.83,0A.92.92,0,0,1,165.18,39.4Zm-.77,3.06h1.53v5.75h-1.53Z"/><path class="cls-1" d="M170.52,48.39a3,3,0,1,1,3.15-3.06A3,3,0,0,1,170.52,48.39Zm0-4.79a1.75,1.75,0,1,0,1.61,1.73A1.62,1.62,0,0,0,170.52,43.6Z"/><path class="cls-1" d="M180.86,48.21h-1.54v-3.1c0-.84-.33-1.56-1.21-1.56a1.57,1.57,0,0,0-1.47,1.76v2.9H175.1V42.46h1.5v.88h.05a2.21,2.21,0,0,1,1.94-1c1.67,0,2.27,1.26,2.27,2.67Z"/><path class="cls-1" d="M184.72,44.68a6.53,6.53,0,0,1,1.43.16v-.25c0-.74-.37-1.12-1.29-1.12a2.15,2.15,0,0,0-1.57.61l-.84-.9a3.4,3.4,0,0,1,2.51-.87c1.81,0,2.62.72,2.62,2.46v3.44h-1.43v-.7h0a2.06,2.06,0,0,1-1.79.85c-1.07,0-2.1-.52-2.1-1.81C182.23,45.44,183.06,44.68,184.72,44.68Zm1.43,1.09a5.9,5.9,0,0,0-1.29-.18c-.83,0-1.18.39-1.18.93s.41.8,1,.8a1.32,1.32,0,0,0,1.45-1.25Z"/><path class="cls-1" d="M190.94,48.21h-1.56V39.14h1.56Z"/><path class="cls-1" d="M200.42,45.75h0l2.21-6H205v8.49h-1.58l0-6.53h0l-2.51,6.53h-1.08l-2.49-6.53h0l0,6.53h-1.53V39.72h2.32Z"/><path class="cls-1" d="M206.85,42.46h1.54v3.07c0,.87.32,1.56,1.24,1.56s1.35-.8,1.35-1.72V42.46h1.55v5.75H211v-.84h0a2.22,2.22,0,0,1-1.77,1c-1.68,0-2.37-1-2.37-2.67Z"/><path class="cls-1" d="M218.18,44.15a2.84,2.84,0,0,0-1.73-.67c-.51,0-1.08.17-1.08.59s.59.54,1.42.67c1.27.21,2.37.57,2.37,1.75s-1.26,1.9-2.58,1.9a4.55,4.55,0,0,1-2.89-1.07l.94-.92a3,3,0,0,0,1.94.84c.55,0,1.12-.2,1.12-.65,0-1.14-3.81-.34-3.81-2.42,0-1.24,1.19-1.86,2.5-1.86a4,4,0,0,1,2.67.94Z"/><path class="cls-1" d="M221.61,45.73a1.58,1.58,0,0,0,1.67,1.47,2.08,2.08,0,0,0,1.58-.78l1,.67a3.37,3.37,0,0,1-2.72,1.3,2.88,2.88,0,0,1-3-2.93,3,3,0,0,1,3.07-3.15A2.75,2.75,0,0,1,226,45.16c0,.21,0,.39,0,.57Zm0-.93h3a1.4,1.4,0,0,0-1.45-1.38A1.56,1.56,0,0,0,221.61,44.8Z"/><path class="cls-1" d="M227.38,42.46h1.54v3.07c0,.87.32,1.56,1.25,1.56s1.34-.8,1.34-1.72V42.46h1.55v5.75h-1.5v-.84h0a2.21,2.21,0,0,1-1.77,1c-1.68,0-2.37-1-2.37-2.67Z"/><path class="cls-1" d="M243,48.21V45c0-.82-.31-1.4-1.13-1.4a1.56,1.56,0,0,0-1.43,1.64v3h-1.54V45c0-.81-.3-1.41-1.13-1.41a1.57,1.57,0,0,0-1.43,1.64v3h-1.53V42.46h1.51v.81h0a2.15,2.15,0,0,1,1.92-1,2.1,2.1,0,0,1,1.87,1.08h0a2.33,2.33,0,0,1,2.12-1.08,2.2,2.2,0,0,1,2.24,2.37v3.53Z"/><path class="cls-1" d="M252.12,48.39a3,3,0,1,1,3.15-3.06A3,3,0,0,1,252.12,48.39Zm0-4.79a1.75,1.75,0,1,0,1.61,1.73A1.62,1.62,0,0,0,252.12,43.6Z"/><path class="cls-1" d="M255.86,42.46H257v-.85c0-1.51.4-2.58,2.2-2.58h1V40.3h-.7c-.7,0-.95.11-.95,1.1v1.06h1.33v1.19h-1.33v4.56H257V43.65h-1.12Z"/><path class="cls-1" d="M263.84,39.72h3c2.3,0,4.71,1.16,4.71,4.23s-2.4,4.26-4.66,4.26h-3Zm1.57,7.1h1.25c1.87,0,3.19-1,3.19-2.87s-1.32-2.85-3.15-2.85h-1.29Z"/><path class="cls-1" d="M274.1,45.73a1.58,1.58,0,0,0,1.67,1.47,2.08,2.08,0,0,0,1.58-.78l1,.67a3.37,3.37,0,0,1-2.72,1.3,2.88,2.88,0,0,1-3-2.93,3,3,0,0,1,3.07-3.15,2.75,2.75,0,0,1,2.77,2.85,5,5,0,0,1,0,.57Zm0-.93h3a1.41,1.41,0,0,0-1.45-1.38A1.56,1.56,0,0,0,274.1,44.8Z"/><path class="cls-1" d="M285.65,48.21h-1.53v-3.1c0-.84-.34-1.56-1.21-1.56a1.57,1.57,0,0,0-1.48,1.76v2.9H279.9V42.46h1.5v.88h0a2.23,2.23,0,0,1,1.95-1c1.66,0,2.26,1.26,2.26,2.67Z"/><path class="cls-1" d="M295.61,48.21V45c0-.82-.31-1.4-1.13-1.4a1.56,1.56,0,0,0-1.42,1.64v3h-1.55V45c0-.81-.3-1.41-1.13-1.41A1.56,1.56,0,0,0,289,45.19v3h-1.54V42.46h1.51v.81h0a2.15,2.15,0,0,1,1.92-1,2.13,2.13,0,0,1,1.87,1.08h0a2.34,2.34,0,0,1,2.12-1.08,2.2,2.2,0,0,1,2.25,2.37v3.53Z"/><path class="cls-1" d="M301,44.68a6.53,6.53,0,0,1,1.43.16v-.25c0-.74-.37-1.12-1.29-1.12a2.15,2.15,0,0,0-1.57.61l-.84-.9a3.4,3.4,0,0,1,2.51-.87c1.82,0,2.62.72,2.62,2.46v3.44h-1.43v-.7h0a2.06,2.06,0,0,1-1.79.85c-1.07,0-2.1-.52-2.1-1.81C298.52,45.44,299.35,44.68,301,44.68Zm1.43,1.09a5.9,5.9,0,0,0-1.29-.18c-.83,0-1.18.39-1.18.93s.41.8,1,.8a1.32,1.32,0,0,0,1.45-1.25Z"/><path class="cls-1" d="M305.66,42.46h1.46v.9h0a1.88,1.88,0,0,1,1.69-1,1.48,1.48,0,0,1,.44,0v1.37a2.82,2.82,0,0,0-.6-.07,1.5,1.5,0,0,0-1.49,1.65v2.9h-1.54Z"/><path class="cls-1" d="M312.7,45.55l-.89.91v1.75h-1.54V39.14h1.54V44.8h0L314,42.46h1.93l-2.08,2.09,2.24,3.66H314.2Z"/><path class="cls-1" d="M127.55,35.45A8.51,8.51,0,1,0,136.06,44,8.51,8.51,0,0,0,127.55,35.45Zm0,16A7.47,7.47,0,1,1,135,44,7.47,7.47,0,0,1,127.55,51.42Z"/><path class="cls-1" d="M126.56,40.29a1,1,0,0,0,2,0,1,1,0,0,0-.73-.95v-.49h.54v-.48h-.54v-.56h-.52v.56h-.54v.48h.54v.49A1,1,0,0,0,126.56,40.29Zm1-.36a.36.36,0,1,1,0,.72.36.36,0,0,1,0-.72Z"/><path class="cls-1" d="M132.05,41.49a1.74,1.74,0,0,0-1.76.12,1,1,0,0,0-.21-.21,1.58,1.58,0,0,0-1.41-.14,10.32,10.32,0,0,0-1.11.5,10.32,10.32,0,0,0-1.11-.5,1.58,1.58,0,0,0-1.41.14,1.45,1.45,0,0,0-.22.21,1.73,1.73,0,0,0-1.75-.12,1.38,1.38,0,0,0-.74,1.17,6.28,6.28,0,0,0,.94,2.45l.15.3h.88l-.34-.66a6.46,6.46,0,0,1-.85-2.09.59.59,0,0,1,.33-.48,1.08,1.08,0,0,1,1.1.17v.09a9.33,9.33,0,0,0,.95,3h.85a12.64,12.64,0,0,1-1-3,.45.45,0,0,1,.18-.4.78.78,0,0,1,.7,0,9.59,9.59,0,0,1,1,.44v3h.78v-3c.29-.14.74-.36,1-.44a.8.8,0,0,1,.71,0,.48.48,0,0,1,.18.4,12.64,12.64,0,0,1-1,3h.85a9.61,9.61,0,0,0,1-3v-.09a1.08,1.08,0,0,1,1.1-.17.61.61,0,0,1,.33.48,6.57,6.57,0,0,1-.86,2.09l-.33.66h.88l.15-.3a6.45,6.45,0,0,0,.94-2.45A1.38,1.38,0,0,0,132.05,41.49Z"/><rect class="cls-1" x="123.78" y="46.1" width="7.54" height="0.78"/><rect class="cls-1" x="123.78" y="47.54" width="7.54" height="0.78"/><path class="cls-1" d="M80.79,1.44H55.28v42.5L23.51,1.44H0V90.73H25.51V46.33l4.25,6V95H8.5v4.25H34v-41l4.25,5.94v39.31H17v4.26H42.52V70.12L57.25,90.73H80.79Zm-4.25,85H59.44L21.26,33.08v53.4h-17V5.69H21.38l38.15,51v-51h17Z"/><polygon class="cls-1" points="89.29 9.94 85.04 9.94 85.04 94.98 63.78 94.98 63.78 99.23 89.29 99.23 89.29 9.94"/><rect class="cls-1" x="72.28" y="103.48" height="4.25"/><polygon class="cls-1" points="93.54 18.45 93.54 103.48 72.28 103.48 72.28 107.74 97.8 107.74 97.8 18.45 93.54 18.45"/><polyline class="cls-1" points="97.8 107.74 97.8 18.45 93.54 18.45 93.54 103.48 72.28 103.48 72.28 107.74"/></g></g></svg>