<svg xmlns="http://www.w3.org/2000/svg" viewBox="0 0 97.79 106.3"><defs><style>.cls-1{fill:#1d1d1b;}</style></defs><title>Asset 1</title><g id="Layer_2" data-name="Layer 2"><g id="logo"><path class="cls-1" d="M80.79,0H55.28V42.5L23.51,0H0V89.29H25.51V44.9l4.25,6V93.54H8.5V97.8H34v-41l4.25,6v39.31H17v4.25H42.52V68.68L57.25,89.29H80.79ZM76.54,85H59.44L21.26,31.64V85h-17V4.25H21.38l38.15,51v-51h17Z"/><polygon class="cls-1" points="89.29 8.5 85.04 8.5 85.04 93.54 63.78 93.54 63.78 97.8 89.29 97.8 89.29 8.5"/><rect class="cls-1" x="72.28" y="102.05" height="4.25"/><polygon class="cls-1" points="93.54 17.01 93.54 102.05 72.28 102.05 72.28 106.3 97.8 106.3 97.8 17.01 93.54 17.01"/><polyline class="cls-1" points="97.8 106.3 97.8 17.01 93.54 17.01 93.54 102.05 72.28 102.05 72.28 106.3"/></g></g></svg>